<svg width="46" height="46" viewBox="0 0 46 46" fill="none" xmlns="http://www.w3.org/2000/svg">
<path d="M21.0417 7.04501H8.55129C7.079 7.04501 5.667 7.6278 4.62593 8.66516C3.58487 9.70253 3 11.1095 3 12.5766V37.4685C3 38.9355 3.58487 40.3425 4.62593 41.3799C5.667 42.4172 7.079 43 8.55129 43H36.3077C37.78 43 39.192 42.4172 40.2331 41.3799C41.2742 40.3425 41.859 38.9355 41.859 37.4685V25.0225" stroke="black" stroke-width="5" stroke-linecap="round" stroke-linejoin="round"/>
<path d="M36.3077 9.81075L38.9529 12.5765M41.859 4.18794C42.599 4.95034 43.0087 5.97191 42.9999 7.03248C42.991 8.09305 42.5644 9.10771 41.8118 9.85777L22.4295 29.1711L14.1026 31.9369L16.8782 23.6396L36.2717 4.15199C36.9534 3.4674 37.8658 3.05905 38.8322 3.00592C39.7986 2.95279 40.7505 3.25865 41.5037 3.86435L41.859 4.18794Z" stroke="black" stroke-width="5" stroke-linecap="round" stroke-linejoin="round"/>
</svg>
