<svg width="40" height="40" viewBox="0 0 40 40" fill="none" xmlns="http://www.w3.org/2000/svg">
<path fill-rule="evenodd" clip-rule="evenodd" d="M33.3333 0C35.1014 0 36.7971 0.702379 38.0474 1.95262C39.2976 3.20286 40 4.89856 40 6.66667V33.3333C40 35.1014 39.2976 36.7971 38.0474 38.0474C36.7971 39.2976 35.1014 40 33.3333 40H6.66667C4.89856 40 3.20286 39.2976 1.95262 38.0474C0.702379 36.7971 0 35.1014 0 33.3333V6.66667C0 4.89856 0.702379 3.20286 1.95262 1.95262C3.20286 0.702379 4.89856 0 6.66667 0H33.3333ZM33.3333 4.44444H6.66667C6.0773 4.44444 5.51207 4.67857 5.09532 5.09532C4.67857 5.51207 4.44444 6.0773 4.44444 6.66667V33.3333C4.44444 33.9227 4.67857 34.4879 5.09532 34.9047C5.51207 35.3214 6.0773 35.5556 6.66667 35.5556H33.3333C33.9227 35.5556 34.4879 35.3214 34.9047 34.9047C35.3214 34.4879 35.5556 33.9227 35.5556 33.3333V6.66667C35.5556 6.0773 35.3214 5.51207 34.9047 5.09532C34.4879 4.67857 33.9227 4.44444 33.3333 4.44444ZM12.2222 24.4444C13.0509 24.4445 13.8498 24.7532 14.4632 25.3103C15.0765 25.8674 15.4605 26.633 15.54 27.4578L15.5556 27.8C15.5551 28.656 15.2254 29.4791 14.6346 30.0986C14.0439 30.7182 13.2375 31.0867 12.3824 31.1278C11.5274 31.169 10.6893 30.8796 10.0418 30.3196C9.39429 29.7597 8.98705 28.972 8.90444 28.12L8.88889 27.7778C8.88889 26.8937 9.24008 26.0459 9.8652 25.4208C10.4903 24.7956 11.3382 24.4444 12.2222 24.4444ZM27.7778 24.4444C28.6064 24.4445 29.4053 24.7532 30.0187 25.3103C30.6321 25.8674 31.016 26.633 31.0956 27.4578L31.1111 27.8C31.1107 28.656 30.7809 29.4791 30.1902 30.0986C29.5995 30.7182 28.793 31.0867 27.938 31.1278C27.0829 31.169 26.2448 30.8796 25.5973 30.3196C24.9498 29.7597 24.5426 28.972 24.46 28.12L24.4444 27.7778C24.4444 26.8937 24.7956 26.0459 25.4208 25.4208C26.0459 24.7956 26.8937 24.4444 27.7778 24.4444ZM20 16.6667C20.8286 16.6667 21.6275 16.9754 22.2409 17.5325C22.8543 18.0896 23.2382 18.8552 23.3178 19.68L23.3333 20.0222C23.3329 20.8783 23.0032 21.7013 22.4124 22.3209C21.8217 22.9404 21.0152 23.3089 20.1602 23.3501C19.3051 23.3912 18.467 23.1018 17.8196 22.5418C17.1721 21.9819 16.7648 21.1943 16.6822 20.3422L16.6667 20C16.6667 19.1159 17.0179 18.2681 17.643 17.643C18.2681 17.0179 19.1159 16.6667 20 16.6667ZM12.2222 8.88889C13.0509 8.88893 13.8498 9.1976 14.4632 9.75471C15.0765 10.3118 15.4605 11.0774 15.54 11.9022L15.5556 12.2444C15.5551 13.1005 15.2254 13.9235 14.6346 14.5431C14.0439 15.1626 13.2375 15.5311 12.3824 15.5723C11.5274 15.6134 10.6893 15.324 10.0418 14.7641C9.39429 14.2041 8.98705 13.4165 8.90444 12.5644L8.88889 12.2222C8.88889 11.3382 9.24008 10.4903 9.8652 9.8652C10.4903 9.24008 11.3382 8.88889 12.2222 8.88889ZM27.7778 8.88889C28.6064 8.88893 29.4053 9.1976 30.0187 9.75471C30.6321 10.3118 31.016 11.0774 31.0956 11.9022L31.1111 12.2444C31.1107 13.1005 30.7809 13.9235 30.1902 14.5431C29.5995 15.1626 28.793 15.5311 27.938 15.5723C27.0829 15.6134 26.2448 15.324 25.5973 14.7641C24.9498 14.2041 24.5426 13.4165 24.46 12.5644L24.4444 12.2222C24.4444 11.3382 24.7956 10.4903 25.4208 9.8652C26.0459 9.24008 26.8937 8.88889 27.7778 8.88889Z" fill="black"/>
</svg>
