<svg width="3152" height="2593" viewBox="0 0 3152 2593" fill="none" xmlns="http://www.w3.org/2000/svg">
<g clip-path="url(#clip0_117_76)" filter="url(#filter0_d_117_76)">
<path d="M711.4 0C815.63 0 915.591 42.5543 989.293 118.301C1062.99 194.049 1104.4 296.784 1104.4 403.906C1104.4 511.029 1062.99 613.764 989.293 689.511C915.591 765.258 815.63 807.812 711.4 807.812C607.17 807.812 507.209 765.258 433.507 689.511C359.805 613.764 318.4 511.029 318.4 403.906C318.4 296.784 359.805 194.049 433.507 118.301C507.209 42.5543 607.17 0 711.4 0ZM2519.2 0C2623.43 0 2723.39 42.5543 2797.09 118.301C2870.79 194.049 2912.2 296.784 2912.2 403.906C2912.2 511.029 2870.79 613.764 2797.09 689.511C2723.39 765.258 2623.43 807.812 2519.2 807.812C2414.97 807.812 2315.01 765.258 2241.31 689.511C2167.61 613.764 2126.2 511.029 2126.2 403.906C2126.2 296.784 2167.61 194.049 2241.31 118.301C2315.01 42.5543 2414.97 0 2519.2 0ZM4 1508.09C4 1210.71 238.817 969.375 528.164 969.375H737.927C816.036 969.375 890.215 987.046 957.025 1018.35C950.639 1054.7 947.691 1092.57 947.691 1130.94C947.691 1323.8 1030.22 1496.98 1160.4 1615.62H108.636C51.16 1615.62 4 1567.16 4 1508.09ZM1995.04 1615.62H1991.6C2122.27 1496.98 2204.31 1323.8 2204.31 1130.94C2204.31 1092.57 2200.87 1055.21 2194.97 1018.35C2261.78 986.541 2335.96 969.375 2414.07 969.375H2623.84C2913.18 969.375 3148 1210.71 3148 1508.09C3148 1567.66 3100.84 1615.62 3043.36 1615.62H1995.53H1995.04ZM1104.4 1130.94C1104.4 1002.39 1154.09 879.108 1242.53 788.212C1330.97 697.315 1450.92 646.25 1576 646.25C1701.08 646.25 1821.03 697.315 1909.47 788.212C1997.91 879.108 2047.6 1002.39 2047.6 1130.94C2047.6 1259.48 1997.91 1382.77 1909.47 1473.66C1821.03 1564.56 1701.08 1615.62 1576 1615.62C1450.92 1615.62 1330.97 1564.56 1242.53 1473.66C1154.09 1382.77 1104.4 1259.48 1104.4 1130.94ZM632.8 2450.2C632.8 2078.6 926.076 1777.19 1287.64 1777.19H1863.87C2225.92 1777.19 2519.2 2078.6 2519.2 2450.2C2519.2 2524.41 2460.74 2585 2388.04 2585H763.473C691.259 2585 632.309 2524.92 632.309 2450.2H632.8Z" fill="black"/>
</g>
<defs>
<filter id="filter0_d_117_76" x="0" y="0" width="3152" height="2593" filterUnits="userSpaceOnUse" color-interpolation-filters="sRGB">
<feFlood flood-opacity="0" result="BackgroundImageFix"/>
<feColorMatrix in="SourceAlpha" type="matrix" values="0 0 0 0 0 0 0 0 0 0 0 0 0 0 0 0 0 0 127 0" result="hardAlpha"/>
<feOffset dy="4"/>
<feGaussianBlur stdDeviation="2"/>
<feComposite in2="hardAlpha" operator="out"/>
<feColorMatrix type="matrix" values="0 0 0 0 0 0 0 0 0 0 0 0 0 0 0 0 0 0 0.25 0"/>
<feBlend mode="normal" in2="BackgroundImageFix" result="effect1_dropShadow_117_76"/>
<feBlend mode="normal" in="SourceGraphic" in2="effect1_dropShadow_117_76" result="shape"/>
</filter>
<clipPath id="clip0_117_76">
<rect width="3144" height="2585" fill="white" transform="translate(4)"/>
</clipPath>
</defs>
</svg>
