<svg width="69" height="69" viewBox="0 0 69 69" fill="none" xmlns="http://www.w3.org/2000/svg">
<path d="M34.6667 66.3333C52.1557 66.3333 66.3333 52.1557 66.3333 34.6667C66.3333 17.1776 52.1557 3 34.6667 3C17.1776 3 3 17.1776 3 34.6667C3 52.1557 17.1776 66.3333 34.6667 66.3333Z" stroke="black" stroke-width="5"/>
<path d="M24.8912 47.1243C28.8748 48.1218 33.3937 48.1218 37.9442 46.9027C42.4947 45.6835 46.4087 43.4225 49.36 40.5662" stroke="black" stroke-width="5" stroke-linecap="round"/>
<path d="M43.8413 32.2066C45.5306 31.754 46.3497 29.3328 45.6707 26.7989C44.9917 24.2649 43.0719 22.5777 41.3826 23.0303C39.6932 23.483 38.8742 25.9041 39.5532 28.4381C40.2322 30.972 42.152 32.6593 43.8413 32.2066Z" fill="black"/>
<path d="M25.4904 37.1268C27.1797 36.6742 27.9987 34.2531 27.3198 31.7191C26.6408 29.1851 24.7209 27.4979 23.0316 27.9505C21.3423 28.4032 20.5233 30.8243 21.2022 33.3583C21.8812 35.8923 23.8011 37.5795 25.4904 37.1268Z" fill="black"/>
<path d="M37.8333 47.3333L39.347 50.4177C39.6208 50.9794 40.0028 51.4815 40.471 51.8953C40.9392 52.3091 41.4845 52.6265 42.0755 52.8292C42.6666 53.0319 43.2919 53.116 43.9155 53.0767C44.5391 53.0374 45.1489 52.8754 45.7098 52.6001C46.2707 52.3247 46.7718 51.9414 47.1844 51.472C47.5969 51.0027 47.9128 50.4566 48.1139 49.865C48.315 49.2733 48.3974 48.6479 48.3564 48.0243C48.3154 47.4008 48.1517 46.7915 47.8748 46.2313L46.4182 43.2705" stroke="black" stroke-width="5"/>
</svg>
