<svg width="45" height="45" viewBox="0 0 45 45" fill="none" xmlns="http://www.w3.org/2000/svg">
<path d="M22.3333 0.333374C10.1893 0.333374 0.333252 10.1894 0.333252 22.3334C0.333252 34.4774 10.1893 44.3334 22.3333 44.3334C34.4773 44.3334 44.3333 34.4774 44.3333 22.3334C44.3333 10.1894 34.4773 0.333374 22.3333 0.333374ZM32.5413 15.2934C32.2113 18.7694 30.7813 27.2174 30.0553 31.1114C29.7473 32.7614 29.1313 33.3114 28.5593 33.3774C27.2833 33.4874 26.3153 32.5414 25.0833 31.7274C23.1473 30.4514 22.0473 29.6594 20.1773 28.4274C17.9993 26.9974 19.4073 26.2054 20.6613 24.9294C20.9913 24.5994 26.6233 19.4734 26.7333 19.0114C26.7485 18.9414 26.7465 18.8688 26.7273 18.7997C26.7082 18.7307 26.6724 18.6674 26.6233 18.6154C26.4913 18.5054 26.3153 18.5494 26.1613 18.5714C25.9633 18.6154 22.8833 20.6614 16.8773 24.7094C15.9973 25.3034 15.2053 25.6114 14.5013 25.5894C13.7093 25.5674 12.2133 25.1494 11.0913 24.7754C9.70525 24.3354 8.62725 24.0934 8.71525 23.3234C8.75925 22.9274 9.30925 22.5314 10.3433 22.1134C16.7673 19.3194 21.0353 17.4714 23.1693 16.5914C29.2853 14.0394 30.5393 13.5994 31.3753 13.5994C31.5513 13.5994 31.9693 13.6434 32.2333 13.8634C32.4533 14.0394 32.5193 14.2814 32.5413 14.4574C32.5193 14.5894 32.5633 14.9854 32.5413 15.2934Z" fill="black"/>
</svg>
