<svg width="289" height="293" viewBox="0 0 289 293" fill="none" xmlns="http://www.w3.org/2000/svg">
<g filter="url(#filter0_d_133_121)">
<path d="M146.5 0C67.7984 0 4 63.7984 4 142.5C4 221.202 67.7984 285 146.5 285C225.202 285 289 221.202 289 142.5C289 63.7984 225.202 0 146.5 0ZM201.303 160.773C201.303 160.773 213.905 173.212 217.008 178.986C217.097 179.115 217.151 179.214 217.171 179.283C218.428 181.391 218.74 183.058 218.106 184.285C217.067 186.334 213.505 187.343 212.287 187.432H190.022C188.478 187.432 185.242 187.031 181.323 184.33C178.31 182.222 175.341 178.763 172.447 175.394C168.127 170.377 164.387 166.042 160.616 166.042C160.137 166.04 159.661 166.115 159.206 166.265C156.356 167.185 152.705 171.252 152.705 182.088C152.705 185.473 150.033 187.417 148.148 187.417H137.95C134.477 187.417 116.382 186.2 100.351 169.293C80.7273 148.586 63.0633 107.053 62.9148 106.667C61.8016 103.98 64.1023 102.541 66.6109 102.541H89.0992C92.0976 102.541 93.0773 104.366 93.7602 105.984C94.5617 107.87 97.5008 115.366 102.325 123.797C110.148 137.542 114.942 143.123 118.787 143.123C119.508 143.115 120.216 142.932 120.85 142.589C125.867 139.798 124.932 121.912 124.709 118.201C124.709 117.503 124.695 110.2 122.127 106.697C120.286 104.159 117.154 103.194 115.254 102.837C116.023 101.776 117.036 100.916 118.208 100.329C121.652 98.607 127.856 98.3547 134.016 98.3547H137.445C144.125 98.4437 145.847 98.8742 148.266 99.4828C153.165 100.655 153.269 103.817 152.838 114.638C152.705 117.711 152.571 121.184 152.571 125.281L152.527 128.131C152.378 133.638 152.2 139.887 156.089 142.455C156.591 142.786 157.181 142.957 157.781 142.945C159.132 142.945 163.199 142.945 174.213 124.049C177.597 117.961 180.549 111.641 183.045 105.138C183.268 104.752 183.921 103.565 184.693 103.105C185.269 102.831 185.896 102.684 186.534 102.674H212.97C215.85 102.674 217.824 103.105 218.195 104.218C218.848 105.984 218.077 111.373 206.009 127.716L200.62 134.826C189.68 149.165 189.68 149.892 201.303 160.773Z" fill="black"/>
</g>
<defs>
<filter id="filter0_d_133_121" x="0" y="0" width="293" height="293" filterUnits="userSpaceOnUse" color-interpolation-filters="sRGB">
<feFlood flood-opacity="0" result="BackgroundImageFix"/>
<feColorMatrix in="SourceAlpha" type="matrix" values="0 0 0 0 0 0 0 0 0 0 0 0 0 0 0 0 0 0 127 0" result="hardAlpha"/>
<feOffset dy="4"/>
<feGaussianBlur stdDeviation="2"/>
<feComposite in2="hardAlpha" operator="out"/>
<feColorMatrix type="matrix" values="0 0 0 0 0 0 0 0 0 0 0 0 0 0 0 0 0 0 0.25 0"/>
<feBlend mode="normal" in2="BackgroundImageFix" result="effect1_dropShadow_133_121"/>
<feBlend mode="normal" in="SourceGraphic" in2="effect1_dropShadow_133_121" result="shape"/>
</filter>
</defs>
</svg>
